<svg width="16" height="16" viewBox="0 0 16 16" fill="none" xmlns="http://www.w3.org/2000/svg">
<path d="M7.65999 4.96399C6.9417 4.96399 6.25282 5.24933 5.74491 5.75724C5.237 6.26515 4.95166 6.95403 4.95166 7.67232C4.95166 8.39062 5.237 9.07949 5.74491 9.5874C6.25282 10.0953 6.9417 10.3807 7.65999 10.3807C8.37829 10.3807 9.06716 10.0953 9.57507 9.5874C10.083 9.07949 10.3683 8.39062 10.3683 7.67232C10.3683 6.95403 10.083 6.26515 9.57507 5.75724C9.06716 5.24933 8.37829 4.96399 7.65999 4.96399Z" fill="#EE2A7B"/>
<path fill-rule="evenodd" clip-rule="evenodd" d="M3.30168 0.240669C6.19837 -0.0802231 9.12165 -0.0802231 12.0183 0.240669C13.6008 0.417336 14.8767 1.66317 15.0625 3.2515C15.4058 6.18873 15.4058 9.15594 15.0625 12.0932C14.8767 13.6815 13.6008 14.9273 12.0192 15.1048C9.12221 15.4258 6.19865 15.4258 3.30168 15.1048C1.71918 14.9273 0.443344 13.6815 0.257511 12.094C-0.0858371 9.1565 -0.0858371 6.189 0.257511 3.2515C0.443344 1.66317 1.71918 0.417336 3.30168 0.240669ZM11.8267 2.67234C11.6057 2.67234 11.3937 2.76013 11.2374 2.91641C11.0811 3.07269 10.9933 3.28466 10.9933 3.50567C10.9933 3.72668 11.0811 3.93864 11.2374 4.09492C11.3937 4.25121 11.6057 4.339 11.8267 4.339C12.0477 4.339 12.2597 4.25121 12.4159 4.09492C12.5722 3.93864 12.66 3.72668 12.66 3.50567C12.66 3.28466 12.5722 3.07269 12.4159 2.91641C12.2597 2.76013 12.0477 2.67234 11.8267 2.67234ZM3.70168 7.67234C3.70168 6.62252 4.11872 5.6157 4.86105 4.87337C5.60338 4.13104 6.6102 3.714 7.66001 3.714C8.70983 3.714 9.71664 4.13104 10.459 4.87337C11.2013 5.6157 11.6183 6.62252 11.6183 7.67234C11.6183 8.72215 11.2013 9.72897 10.459 10.4713C9.71664 11.2136 8.70983 11.6307 7.66001 11.6307C6.6102 11.6307 5.60338 11.2136 4.86105 10.4713C4.11872 9.72897 3.70168 8.72215 3.70168 7.67234Z" fill="#EE2A7B"/>
</svg>
